<svg width="4602" height="737" viewBox="0 0 4602 737" fill="none" xmlns="http://www.w3.org/2000/svg">
<rect width="4602" height="737" fill="#E5E5E5"/>
<g clip-path="url(#clip0)">
<rect width="4602" height="737" fill="white"/>
<path d="M966.05 111H1027.05V484.93H1258.24V538H966.05V111ZM1319.7 214.7H1378.26V538H1319.7V214.7ZM1348.98 152.48C1337.59 152.48 1328.03 148.82 1320.31 141.5C1312.99 134.18 1309.33 125.233 1309.33 114.66C1309.33 104.087 1312.99 95.14 1320.31 87.82C1328.03 80.0933 1337.59 76.23 1348.98 76.23C1360.36 76.23 1369.72 79.89 1377.04 87.21C1384.76 94.1233 1388.63 102.867 1388.63 113.44C1388.63 124.42 1384.76 133.773 1377.04 141.5C1369.72 148.82 1360.36 152.48 1348.98 152.48ZM1795.07 214.7V656.34H1736.51V489.2C1723.09 506.28 1706.62 519.293 1687.1 528.24C1667.99 537.187 1646.84 541.66 1623.66 541.66C1592.35 541.66 1564.29 534.747 1539.48 520.92C1514.67 507.093 1495.15 487.777 1480.92 462.97C1467.09 437.757 1460.18 408.883 1460.18 376.35C1460.18 343.817 1467.09 315.147 1480.92 290.34C1495.15 265.533 1514.67 246.217 1539.48 232.39C1564.29 218.563 1592.35 211.65 1623.66 211.65C1647.65 211.65 1669.61 216.327 1689.54 225.68C1709.47 234.627 1725.94 248.047 1738.95 265.94V214.7H1795.07ZM1628.54 490.42C1648.87 490.42 1667.38 485.743 1684.05 476.39C1700.72 466.63 1713.74 453.21 1723.09 436.13C1732.44 418.643 1737.12 398.717 1737.12 376.35C1737.12 353.983 1732.24 334.26 1722.48 317.18C1713.13 300.1 1700.11 286.883 1683.44 277.53C1667.17 267.77 1648.87 262.89 1628.54 262.89C1607.8 262.89 1589.09 267.567 1572.42 276.92C1556.15 286.273 1543.14 299.693 1533.38 317.18C1524.03 334.26 1519.35 353.983 1519.35 376.35C1519.35 398.717 1524.03 418.643 1533.38 436.13C1543.14 453.21 1556.15 466.63 1572.42 476.39C1589.09 485.743 1607.8 490.42 1628.54 490.42ZM2207.21 214.7V538H2151.7V489.2C2139.91 505.873 2124.25 518.887 2104.73 528.24C2085.62 537.187 2064.67 541.66 2041.9 541.66C1998.79 541.66 1964.84 529.867 1940.03 506.28C1915.22 482.287 1902.82 447.11 1902.82 400.75V214.7H1961.38V394.04C1961.38 425.353 1968.9 449.143 1983.95 465.41C1999 481.27 2020.55 489.2 2048.61 489.2C2079.52 489.2 2103.92 479.847 2121.81 461.14C2139.7 442.433 2148.65 416 2148.65 381.84V214.7H2207.21ZM2318.69 214.7H2377.25V538H2318.69V214.7ZM2347.97 152.48C2336.58 152.48 2327.03 148.82 2319.3 141.5C2311.98 134.18 2308.32 125.233 2308.32 114.66C2308.32 104.087 2311.98 95.14 2319.3 87.82C2327.03 80.0933 2336.58 76.23 2347.97 76.23C2359.36 76.23 2368.71 79.89 2376.03 87.21C2383.76 94.1233 2387.62 102.867 2387.62 113.44C2387.62 124.42 2383.76 133.773 2376.03 141.5C2368.71 148.82 2359.36 152.48 2347.97 152.48ZM2794.06 85.38V538H2737.94V486.76C2724.93 504.653 2708.46 518.277 2688.53 527.63C2668.61 536.983 2646.65 541.66 2622.65 541.66C2591.34 541.66 2563.28 534.747 2538.47 520.92C2513.67 507.093 2494.15 487.777 2479.91 462.97C2466.09 437.757 2459.17 408.883 2459.17 376.35C2459.17 343.817 2466.09 315.147 2479.91 290.34C2494.15 265.533 2513.67 246.217 2538.47 232.39C2563.28 218.563 2591.34 211.65 2622.65 211.65C2645.83 211.65 2667.18 216.123 2686.7 225.07C2706.22 233.61 2722.49 246.42 2735.5 263.5V85.38H2794.06ZM2627.53 490.42C2647.87 490.42 2666.37 485.743 2683.04 476.39C2699.72 466.63 2712.73 453.21 2722.08 436.13C2731.44 418.643 2736.11 398.717 2736.11 376.35C2736.11 353.983 2731.44 334.26 2722.08 317.18C2712.73 299.693 2699.72 286.273 2683.04 276.92C2666.37 267.567 2647.87 262.89 2627.53 262.89C2606.79 262.89 2588.09 267.567 2571.41 276.92C2555.15 286.273 2542.13 299.693 2532.37 317.18C2523.02 334.26 2518.34 353.983 2518.34 376.35C2518.34 398.717 2523.02 418.643 2532.37 436.13C2542.13 453.21 2555.15 466.63 2571.41 476.39C2588.09 485.743 2606.79 490.42 2627.53 490.42ZM3077.22 111H3138.22V484.93H3369.41V538H3077.22V111ZM3565.17 541.66C3533.04 541.66 3504.17 534.543 3478.55 520.31C3452.93 506.077 3432.8 486.557 3418.16 461.75C3403.93 436.537 3396.81 408.07 3396.81 376.35C3396.81 344.63 3403.93 316.367 3418.16 291.56C3432.8 266.347 3452.93 246.827 3478.55 233C3504.17 218.767 3533.04 211.65 3565.17 211.65C3597.3 211.65 3625.97 218.767 3651.18 233C3676.8 246.827 3696.73 266.347 3710.96 291.56C3725.6 316.367 3732.92 344.63 3732.92 376.35C3732.92 408.07 3725.6 436.537 3710.96 461.75C3696.73 486.557 3676.8 506.077 3651.18 520.31C3625.97 534.543 3597.3 541.66 3565.17 541.66ZM3565.17 490.42C3585.91 490.42 3604.41 485.743 3620.68 476.39C3637.35 466.63 3650.37 453.21 3659.72 436.13C3669.07 418.643 3673.75 398.717 3673.75 376.35C3673.75 353.983 3669.07 334.26 3659.72 317.18C3650.37 299.693 3637.35 286.273 3620.68 276.92C3604.41 267.567 3585.91 262.89 3565.17 262.89C3544.43 262.89 3525.72 267.567 3509.05 276.92C3492.78 286.273 3479.77 299.693 3470.01 317.18C3460.66 334.26 3455.98 353.983 3455.98 376.35C3455.98 398.717 3460.66 418.643 3470.01 436.13C3479.77 453.21 3492.78 466.63 3509.05 476.39C3525.72 485.743 3544.43 490.42 3565.17 490.42ZM3952.38 541.66C3920.25 541.66 3891.38 534.543 3865.76 520.31C3840.14 506.077 3820.01 486.557 3805.37 461.75C3791.13 436.537 3784.02 408.07 3784.02 376.35C3784.02 344.63 3791.13 316.367 3805.37 291.56C3820.01 266.347 3840.14 246.827 3865.76 233C3891.38 218.767 3920.25 211.65 3952.38 211.65C3984.5 211.65 4013.17 218.767 4038.39 233C4064.01 246.827 4083.93 266.347 4098.17 291.56C4112.81 316.367 4120.13 344.63 4120.13 376.35C4120.13 408.07 4112.81 436.537 4098.17 461.75C4083.93 486.557 4064.01 506.077 4038.39 520.31C4013.17 534.543 3984.5 541.66 3952.38 541.66ZM3952.38 490.42C3973.12 490.42 3991.62 485.743 4007.89 476.39C4024.56 466.63 4037.57 453.21 4046.93 436.13C4056.28 418.643 4060.96 398.717 4060.96 376.35C4060.96 353.983 4056.28 334.26 4046.93 317.18C4037.57 299.693 4024.56 286.273 4007.89 276.92C3991.62 267.567 3973.12 262.89 3952.38 262.89C3931.64 262.89 3912.93 267.567 3896.26 276.92C3879.99 286.273 3866.98 299.693 3857.22 317.18C3847.86 334.26 3843.19 353.983 3843.19 376.35C3843.19 398.717 3847.86 418.643 3857.22 436.13C3866.98 453.21 3879.99 466.63 3896.26 476.39C3912.93 485.743 3931.64 490.42 3952.38 490.42ZM4372.52 211.65C4403.84 211.65 4431.9 218.563 4456.7 232.39C4481.51 246.217 4500.83 265.533 4514.65 290.34C4528.89 315.147 4536 343.817 4536 376.35C4536 408.883 4528.89 437.757 4514.65 462.97C4500.83 487.777 4481.51 507.093 4456.7 520.92C4431.9 534.747 4403.84 541.66 4372.52 541.66C4349.34 541.66 4327.99 537.187 4308.47 528.24C4289.36 519.293 4273.09 506.28 4259.67 489.2V656.34H4201.11V214.7H4257.23V265.94C4270.25 248.047 4286.72 234.627 4306.64 225.68C4326.57 216.327 4348.53 211.65 4372.52 211.65ZM4367.64 490.42C4388.38 490.42 4406.89 485.743 4423.15 476.39C4439.83 466.63 4452.84 453.21 4462.19 436.13C4471.95 418.643 4476.83 398.717 4476.83 376.35C4476.83 353.983 4471.95 334.26 4462.19 317.18C4452.84 299.693 4439.83 286.273 4423.15 276.92C4406.89 267.567 4388.38 262.89 4367.64 262.89C4347.31 262.89 4328.81 267.77 4312.13 277.53C4295.87 286.883 4282.85 300.1 4273.09 317.18C4263.74 334.26 4259.06 353.983 4259.06 376.35C4259.06 398.717 4263.74 418.643 4273.09 436.13C4282.45 453.21 4295.46 466.63 4312.13 476.39C4328.81 485.743 4347.31 490.42 4367.64 490.42Z" fill="#0066FF"/>
<rect x="58" y="111" width="769.495" height="427" rx="213.5" fill="url(#paint0_linear)"/>
<rect x="214" y="198" width="458.218" height="254.348" rx="127.174" fill="white"/>
</g>
<defs>
<linearGradient id="paint0_linear" x1="297.029" y1="324.354" x2="633.204" y2="324.354" gradientUnits="userSpaceOnUse">
<stop stop-color="#FF0000"/>
<stop offset="1" stop-color="#0066FF"/>
<stop offset="1" stop-color="#0066FF"/>
</linearGradient>
<clipPath id="clip0">
<rect width="4602" height="737" fill="white"/>
</clipPath>
</defs>
</svg>
